<mxfile host="app.diagrams.net" agent="Mozilla/5.0 (Windows NT 10.0; Win64; x64) AppleWebKit/537.36 (KHTML, like Gecko) Chrome/135.0.0.0 Safari/537.36" version="26.2.14">
  <diagram name="Page-1" id="xgW1Ss6Kz63qGIDsp6Z5">
    <mxGraphModel dx="2084" dy="1216" grid="1" gridSize="10" guides="1" tooltips="1" connect="1" arrows="1" fold="1" page="1" pageScale="1" pageWidth="850" pageHeight="1100" math="0" shadow="0">
      <root>
        <mxCell id="0" />
        <mxCell id="1" parent="0" />
        <mxCell id="cIqj6wyqBXI0FfvbZMqQ-1" value="&lt;font style=&quot;font-size: 18px;&quot;&gt;Start&lt;/font&gt;" style="strokeWidth=2;html=1;shape=mxgraph.flowchart.terminator;whiteSpace=wrap;" parent="1" vertex="1">
          <mxGeometry x="50" y="180" width="100" height="60" as="geometry" />
        </mxCell>
        <mxCell id="cIqj6wyqBXI0FfvbZMqQ-2" value="" style="endArrow=classic;html=1;rounded=0;" parent="1" edge="1">
          <mxGeometry width="50" height="50" relative="1" as="geometry">
            <mxPoint x="150" y="208.89" as="sourcePoint" />
            <mxPoint x="240" y="208.89" as="targetPoint" />
          </mxGeometry>
        </mxCell>
        <mxCell id="cIqj6wyqBXI0FfvbZMqQ-3" value="" style="endArrow=classic;html=1;rounded=0;" parent="1" edge="1">
          <mxGeometry width="50" height="50" relative="1" as="geometry">
            <mxPoint x="390" y="200" as="sourcePoint" />
            <mxPoint x="480" y="140" as="targetPoint" />
            <Array as="points">
              <mxPoint x="390" y="140" />
            </Array>
          </mxGeometry>
        </mxCell>
        <mxCell id="cIqj6wyqBXI0FfvbZMqQ-4" value="" style="endArrow=classic;html=1;rounded=0;" parent="1" edge="1">
          <mxGeometry width="50" height="50" relative="1" as="geometry">
            <mxPoint x="390" y="209.5" as="sourcePoint" />
            <mxPoint x="480" y="209.5" as="targetPoint" />
          </mxGeometry>
        </mxCell>
        <mxCell id="cIqj6wyqBXI0FfvbZMqQ-5" value="" style="endArrow=classic;html=1;rounded=0;" parent="1" edge="1">
          <mxGeometry width="50" height="50" relative="1" as="geometry">
            <mxPoint x="390" y="200" as="sourcePoint" />
            <mxPoint x="480" y="340" as="targetPoint" />
            <Array as="points">
              <mxPoint x="390" y="340" />
            </Array>
          </mxGeometry>
        </mxCell>
        <mxCell id="cIqj6wyqBXI0FfvbZMqQ-6" value="" style="endArrow=classic;html=1;rounded=0;" parent="1" edge="1">
          <mxGeometry width="50" height="50" relative="1" as="geometry">
            <mxPoint x="360" y="208.89" as="sourcePoint" />
            <mxPoint x="390" y="209.39" as="targetPoint" />
          </mxGeometry>
        </mxCell>
        <mxCell id="cIqj6wyqBXI0FfvbZMqQ-7" value="&lt;font size=&quot;3&quot;&gt;Beranda&lt;/font&gt;" style="rounded=0;whiteSpace=wrap;html=1;" parent="1" vertex="1">
          <mxGeometry x="240" y="180" width="120" height="60" as="geometry" />
        </mxCell>
        <mxCell id="cIqj6wyqBXI0FfvbZMqQ-8" value="&lt;font size=&quot;3&quot;&gt;Tentang Kami&lt;/font&gt;" style="rounded=0;whiteSpace=wrap;html=1;" parent="1" vertex="1">
          <mxGeometry x="480" y="110" width="120" height="60" as="geometry" />
        </mxCell>
        <mxCell id="cIqj6wyqBXI0FfvbZMqQ-9" value="&lt;font size=&quot;3&quot;&gt;Pemesanan&lt;/font&gt;" style="rounded=0;whiteSpace=wrap;html=1;" parent="1" vertex="1">
          <mxGeometry x="480" y="180" width="120" height="60" as="geometry" />
        </mxCell>
        <mxCell id="cIqj6wyqBXI0FfvbZMqQ-10" value="&lt;font size=&quot;3&quot;&gt;Jadwal&lt;/font&gt;" style="rounded=0;whiteSpace=wrap;html=1;" parent="1" vertex="1">
          <mxGeometry x="480" y="310" width="120" height="60" as="geometry" />
        </mxCell>
        <mxCell id="cIqj6wyqBXI0FfvbZMqQ-11" value="" style="endArrow=classic;html=1;rounded=0;" parent="1" edge="1">
          <mxGeometry width="50" height="50" relative="1" as="geometry">
            <mxPoint x="600" y="209.5" as="sourcePoint" />
            <mxPoint x="690" y="209.5" as="targetPoint" />
          </mxGeometry>
        </mxCell>
        <mxCell id="cIqj6wyqBXI0FfvbZMqQ-12" value="" style="endArrow=classic;html=1;rounded=0;entryX=0;entryY=0.5;entryDx=0;entryDy=0;" parent="1" target="cIqj6wyqBXI0FfvbZMqQ-13" edge="1">
          <mxGeometry width="50" height="50" relative="1" as="geometry">
            <mxPoint x="600" y="339.5" as="sourcePoint" />
            <mxPoint x="690" y="339.5" as="targetPoint" />
            <Array as="points">
              <mxPoint x="640" y="340" />
              <mxPoint x="640" y="390" />
            </Array>
          </mxGeometry>
        </mxCell>
        <mxCell id="cIqj6wyqBXI0FfvbZMqQ-13" value="&lt;font size=&quot;3&quot;&gt;Daftar list peminjaman berupa kalender&lt;/font&gt;" style="rounded=0;whiteSpace=wrap;html=1;" parent="1" vertex="1">
          <mxGeometry x="690" y="360" width="120" height="60" as="geometry" />
        </mxCell>
        <mxCell id="cIqj6wyqBXI0FfvbZMqQ-14" value="&lt;font style=&quot;font-size: 14px;&quot;&gt;jadwal kosong?&lt;/font&gt;" style="rhombus;whiteSpace=wrap;html=1;" parent="1" vertex="1">
          <mxGeometry x="860" y="350" width="80" height="80" as="geometry" />
        </mxCell>
        <mxCell id="cIqj6wyqBXI0FfvbZMqQ-15" value="" style="endArrow=classic;html=1;rounded=0;" parent="1" edge="1">
          <mxGeometry width="50" height="50" relative="1" as="geometry">
            <mxPoint x="810" y="389.5" as="sourcePoint" />
            <mxPoint x="860" y="390" as="targetPoint" />
          </mxGeometry>
        </mxCell>
        <mxCell id="cIqj6wyqBXI0FfvbZMqQ-16" value="" style="endArrow=classic;html=1;rounded=0;exitX=0.5;exitY=0;exitDx=0;exitDy=0;entryX=0.5;entryY=1;entryDx=0;entryDy=0;" parent="1" source="cIqj6wyqBXI0FfvbZMqQ-14" target="cIqj6wyqBXI0FfvbZMqQ-9" edge="1">
          <mxGeometry width="50" height="50" relative="1" as="geometry">
            <mxPoint x="620" y="229.5" as="sourcePoint" />
            <mxPoint x="540" y="280" as="targetPoint" />
            <Array as="points">
              <mxPoint x="900" y="280" />
              <mxPoint x="540" y="280" />
            </Array>
          </mxGeometry>
        </mxCell>
        <mxCell id="cIqj6wyqBXI0FfvbZMqQ-17" value="Ya" style="text;html=1;align=center;verticalAlign=middle;whiteSpace=wrap;rounded=0;" parent="1" vertex="1">
          <mxGeometry x="900" y="325" width="60" height="30" as="geometry" />
        </mxCell>
        <mxCell id="cIqj6wyqBXI0FfvbZMqQ-18" value="&lt;font size=&quot;3&quot;&gt;Mengisi Formulir&lt;/font&gt;" style="rounded=0;whiteSpace=wrap;html=1;" parent="1" vertex="1">
          <mxGeometry x="690" y="180" width="120" height="60" as="geometry" />
        </mxCell>
        <mxCell id="cIqj6wyqBXI0FfvbZMqQ-19" value="" style="endArrow=classic;html=1;rounded=0;" parent="1" edge="1">
          <mxGeometry width="50" height="50" relative="1" as="geometry">
            <mxPoint x="810" y="209.5" as="sourcePoint" />
            <mxPoint x="900" y="209.5" as="targetPoint" />
          </mxGeometry>
        </mxCell>
        <mxCell id="cIqj6wyqBXI0FfvbZMqQ-20" value="&lt;font style=&quot;font-size: 12px;&quot;&gt;Formulir sudah disubmit?&lt;/font&gt;" style="rhombus;whiteSpace=wrap;html=1;" parent="1" vertex="1">
          <mxGeometry x="900" y="155" width="110" height="110" as="geometry" />
        </mxCell>
        <mxCell id="cIqj6wyqBXI0FfvbZMqQ-21" value="Ya" style="text;html=1;align=center;verticalAlign=middle;whiteSpace=wrap;rounded=0;" parent="1" vertex="1">
          <mxGeometry x="990" y="210" width="60" height="30" as="geometry" />
        </mxCell>
        <mxCell id="cIqj6wyqBXI0FfvbZMqQ-22" value="" style="endArrow=classic;html=1;rounded=0;" parent="1" edge="1">
          <mxGeometry width="50" height="50" relative="1" as="geometry">
            <mxPoint x="1010" y="209.5" as="sourcePoint" />
            <mxPoint x="1100" y="209.5" as="targetPoint" />
          </mxGeometry>
        </mxCell>
        <mxCell id="cIqj6wyqBXI0FfvbZMqQ-23" value="Proses pemesanan" style="shape=process;whiteSpace=wrap;html=1;backgroundOutline=1;" parent="1" vertex="1">
          <mxGeometry x="1100" y="180" width="120" height="60" as="geometry" />
        </mxCell>
        <mxCell id="cIqj6wyqBXI0FfvbZMqQ-24" value="" style="endArrow=classic;html=1;rounded=0;" parent="1" edge="1">
          <mxGeometry width="50" height="50" relative="1" as="geometry">
            <mxPoint x="1220" y="210" as="sourcePoint" />
            <mxPoint x="1310" y="210" as="targetPoint" />
          </mxGeometry>
        </mxCell>
        <mxCell id="cIqj6wyqBXI0FfvbZMqQ-25" value="&lt;font size=&quot;3&quot;&gt;File pdf bukti pemesanan&lt;/font&gt;" style="rounded=0;whiteSpace=wrap;html=1;" parent="1" vertex="1">
          <mxGeometry x="1310" y="180" width="120" height="60" as="geometry" />
        </mxCell>
        <mxCell id="cIqj6wyqBXI0FfvbZMqQ-26" value="" style="endArrow=classic;html=1;rounded=0;" parent="1" edge="1">
          <mxGeometry width="50" height="50" relative="1" as="geometry">
            <mxPoint x="1430" y="210" as="sourcePoint" />
            <mxPoint x="1520" y="210" as="targetPoint" />
          </mxGeometry>
        </mxCell>
        <mxCell id="cIqj6wyqBXI0FfvbZMqQ-27" value="&lt;font size=&quot;3&quot;&gt;Kirim e-mail download file pdf&lt;/font&gt;" style="rounded=0;whiteSpace=wrap;html=1;" parent="1" vertex="1">
          <mxGeometry x="1520" y="180" width="120" height="60" as="geometry" />
        </mxCell>
        <mxCell id="cIqj6wyqBXI0FfvbZMqQ-28" value="" style="endArrow=classic;html=1;rounded=0;" parent="1" edge="1">
          <mxGeometry width="50" height="50" relative="1" as="geometry">
            <mxPoint x="1640" y="210" as="sourcePoint" />
            <mxPoint x="1730" y="210" as="targetPoint" />
          </mxGeometry>
        </mxCell>
        <mxCell id="cIqj6wyqBXI0FfvbZMqQ-29" value="&lt;span style=&quot;font-size: 18px;&quot;&gt;End&lt;/span&gt;" style="strokeWidth=2;html=1;shape=mxgraph.flowchart.terminator;whiteSpace=wrap;" parent="1" vertex="1">
          <mxGeometry x="1900" y="180" width="100" height="60" as="geometry" />
        </mxCell>
        <mxCell id="cIqj6wyqBXI0FfvbZMqQ-30" value="&lt;font style=&quot;font-size: 14px;&quot;&gt;E-mail diterima?&lt;/font&gt;" style="rhombus;whiteSpace=wrap;html=1;" parent="1" vertex="1">
          <mxGeometry x="1730" y="170" width="80" height="80" as="geometry" />
        </mxCell>
        <mxCell id="cIqj6wyqBXI0FfvbZMqQ-31" value="" style="endArrow=classic;html=1;rounded=0;" parent="1" edge="1">
          <mxGeometry width="50" height="50" relative="1" as="geometry">
            <mxPoint x="1808" y="210" as="sourcePoint" />
            <mxPoint x="1898" y="210" as="targetPoint" />
          </mxGeometry>
        </mxCell>
        <mxCell id="cIqj6wyqBXI0FfvbZMqQ-32" value="Ya" style="text;html=1;align=center;verticalAlign=middle;whiteSpace=wrap;rounded=0;" parent="1" vertex="1">
          <mxGeometry x="1790" y="210" width="60" height="30" as="geometry" />
        </mxCell>
        <mxCell id="cIqj6wyqBXI0FfvbZMqQ-33" value="Tidak" style="text;html=1;align=center;verticalAlign=middle;whiteSpace=wrap;rounded=0;" parent="1" vertex="1">
          <mxGeometry x="1690" y="155" width="60" height="30" as="geometry" />
        </mxCell>
        <mxCell id="cIqj6wyqBXI0FfvbZMqQ-34" value="" style="endArrow=classic;html=1;rounded=0;entryX=0.5;entryY=0;entryDx=0;entryDy=0;" parent="1" target="cIqj6wyqBXI0FfvbZMqQ-27" edge="1">
          <mxGeometry width="50" height="50" relative="1" as="geometry">
            <mxPoint x="1770" y="168.57" as="sourcePoint" />
            <mxPoint x="1860" y="168.57" as="targetPoint" />
            <Array as="points">
              <mxPoint x="1770" y="150" />
              <mxPoint x="1580" y="150" />
            </Array>
          </mxGeometry>
        </mxCell>
        <mxCell id="cIqj6wyqBXI0FfvbZMqQ-35" value="&lt;font style=&quot;font-size: 24px;&quot;&gt;User Flow Diagram&lt;/font&gt;&lt;div&gt;&lt;br&gt;&lt;/div&gt;" style="text;html=1;align=center;verticalAlign=middle;whiteSpace=wrap;rounded=0;" parent="1" vertex="1">
          <mxGeometry x="50" y="50" width="240" height="30" as="geometry" />
        </mxCell>
        <mxCell id="cIqj6wyqBXI0FfvbZMqQ-36" value="" style="endArrow=classic;html=1;rounded=0;" parent="1" edge="1">
          <mxGeometry width="50" height="50" relative="1" as="geometry">
            <mxPoint x="1369.52" y="240" as="sourcePoint" />
            <mxPoint x="1369.52" y="290" as="targetPoint" />
          </mxGeometry>
        </mxCell>
        <mxCell id="cIqj6wyqBXI0FfvbZMqQ-38" value="Simpan di database" style="shape=process;whiteSpace=wrap;html=1;backgroundOutline=1;" parent="1" vertex="1">
          <mxGeometry x="1310" y="290" width="120" height="60" as="geometry" />
        </mxCell>
        <mxCell id="cIqj6wyqBXI0FfvbZMqQ-39" value="" style="endArrow=classic;html=1;rounded=0;entryX=0.5;entryY=1;entryDx=0;entryDy=0;" parent="1" target="cIqj6wyqBXI0FfvbZMqQ-13" edge="1">
          <mxGeometry width="50" height="50" relative="1" as="geometry">
            <mxPoint x="1369.66" y="350" as="sourcePoint" />
            <mxPoint x="1369.66" y="400" as="targetPoint" />
            <Array as="points">
              <mxPoint x="1370" y="450" />
              <mxPoint x="750" y="450" />
            </Array>
          </mxGeometry>
        </mxCell>
      </root>
    </mxGraphModel>
  </diagram>
</mxfile>
